<?xml version="1.0" encoding="UTF-8"?>
<svg width="100px" height="100px" viewBox="0 0 100 100" version="1.1" xmlns="http://www.w3.org/2000/svg" xmlns:xlink="http://www.w3.org/1999/xlink">
    <!-- Generator: Sketch 64 (93537) - https://sketch.com -->
    <title>logo</title>
    <desc>Created with Sketch.</desc>
    <g id="Page-1" stroke="none" stroke-width="1" fill="none" fill-rule="evenodd">
        <g id="benckiser_vyhraj-pracku_homepage" transform="translate(-180.000000, -511.000000)" fill="#000000" fill-rule="nonzero">
            <g id="logo" transform="translate(180.000000, 511.000000)">
                <path d="M0,100 C75,100 100,75 100,0 C25,0 0,25 0,100 Z M69.4,33.4 L43.4,33.4 L43.4,49.1 L67.4,49.1 L67.4,60.5 L43.4,60.5 L43.4,80.4 C39.4,82.9 35.2,85.3 30.8,87.5 L30.6,87.5 L30.6,41.7 C37.1,34.2 44.4,27.7 52.9,22 L69.4,22 L69.4,33.4 Z" id="Shape"></path>
                <path d="M100,81.2 C100,84.7 97.2,87.4 93.7,87.4 C90.2,87.4 87.5,84.6 87.5,81.2 C87.5,77.8 90.3,75 93.7,75 C97.2,75 100,77.8 100,81.2 Z" id="Path"></path>
            </g>
        </g>
    </g>
</svg>